<svg xmlns="http://www.w3.org/2000/svg" viewBox="0 0 256 256">
  <defs>
    <linearGradient id="g" x1="0" x2="1" y1="0" y2="1">
      <stop offset="0%" stop-color="#ffcf74"/>
      <stop offset="100%" stop-color="#f6a600"/>
    </linearGradient>
  </defs>
  <rect width="256" height="256" rx="56" fill="#0a0908"/>
  <rect x="28" y="28" width="200" height="200" rx="44" fill="#15110d" stroke="rgba(255,255,255,.12)"/>
  <path d="M68 92h120l-8 70a24 24 0 0 1-24 21H100a24 24 0 0 1-24-21z" fill="url(#g)"/>
  <path d="M88 76c0-18 14-32 32-32h16c18 0 32 14 32 32v12h-16V78c0-10-6-18-18-18h-12c-12 0-18 8-18 18v10H88z" fill="#fff8f1"/>
  <circle cx="96" cy="204" r="12" fill="#fff8f1"/>
  <circle cx="160" cy="204" r="12" fill="#fff8f1"/>
  <path d="M90 122h76" stroke="#251607" stroke-width="14" stroke-linecap="round"/>
  <path d="M90 148h56" stroke="#251607" stroke-width="14" stroke-linecap="round"/>
</svg>
